<?xml version="1.0" encoding="UTF-8"?>
<svg width="29px" height="23px" viewBox="0 0 29 23" version="1.1" xmlns="http://www.w3.org/2000/svg" xmlns:xlink="http://www.w3.org/1999/xlink">
    <!-- Generator: Sketch 62 (91390) - https://sketch.com -->
    <title>Twitter</title>
    <g id="Symbols" stroke="none" stroke-width="1" fill="none" fill-rule="evenodd">
        <g id="Footer/Desktop/Footer-Desktop-XL-1920-V2" transform="translate(-1651.000000, -658.000000)" fill="#939393" fill-rule="nonzero">
            <g id="div.Footer-Content" transform="translate(64.000000, 58.000000)">
                <g id="Menu">
                    <g id="Content" transform="translate(0.000000, 205.000000)">
                        <g id="div.Utility-Links" transform="translate(226.000000, 385.000000)">
                            <g id="Group" transform="translate(1324.000000, 10.000000)">
                                <g id="Twitter_Logo_WhiteOnImage" transform="translate(37.027431, -0.000000)">
                                    <g id="Logo__x2014__FIXED" transform="translate(0.239908, 0.000000)">
                                        <path d="M8.95220278,22.911509 C19.6925682,22.911509 25.5695868,14.111509 25.5695868,6.49309463 C25.5695868,6.2455243 25.5695868,5.99795396 25.5581973,5.75038363 C26.6971544,4.94015345 27.688047,3.91611253 28.4739274,2.75703325 C27.4260869,3.21841432 26.2985194,3.52225064 25.114004,3.6685422 C26.3212985,2.95959079 27.2438538,1.8230179 27.688047,0.472634271 C26.5604795,1.13657289 25.3076267,1.60920716 23.9750469,1.86803069 C22.9044272,0.742710997 21.3896143,0.0450127877 19.7153474,0.0450127877 C16.4920988,0.0450127877 13.8724974,2.63324808 13.8724974,5.81790281 C13.8724974,6.26803069 13.9294453,6.70690537 14.0205619,7.13452685 C9.16860463,6.89820972 4.86334681,4.59130435 1.98178535,1.1028133 C1.48064423,1.95805627 1.19590495,2.9483376 1.19590495,4.00613811 C1.19590495,6.00920716 2.23235591,7.77595908 3.79272713,8.8112532 C2.83600317,8.77749361 1.93622707,8.51867008 1.15034667,8.09104859 C1.15034667,8.11355499 1.15034667,8.13606138 1.15034667,8.16982097 C1.15034667,10.9606138 3.16630073,13.3012788 5.83146034,13.830179 C5.34170879,13.9652174 4.82917809,14.0327366 4.29386826,14.0327366 C3.91801241,14.0327366 3.55354614,13.998977 3.20046944,13.9314578 C3.94079156,16.22711 6.10481004,17.8925831 8.65607394,17.9375959 C6.65150945,19.4905371 4.13441426,20.4132992 1.40091723,20.4132992 C0.93394482,20.4132992 0.46697241,20.3907928 0.011389571,20.3345269 C2.58543261,21.9549872 5.66061677,22.911509 8.95220278,22.911509" id="Path"></path>
                                    </g>
                                </g>
                            </g>
                        </g>
                    </g>
                </g>
            </g>
        </g>
    </g>
</svg>